<?xml version="1.0" encoding="UTF-8" standalone="no"?>
<svg
   xmlns:dc="http://purl.org/dc/elements/1.1/"
   xmlns:cc="http://creativecommons.org/ns#"
   xmlns:rdf="http://www.w3.org/1999/02/22-rdf-syntax-ns#"
   xmlns:svg="http://www.w3.org/2000/svg"
   xmlns="http://www.w3.org/2000/svg"
   version="1.1"
   id="svg2"
   viewBox="0 0 396.20573 396.20573"
   height="111.81807mm"
   width="111.81807mm">
  <defs
     id="defs4">
    <filter
       height="1.1185231"
       y="-0.059261538"
       width="1.0163915"
       x="-0.0081957448"
       id="filter4344"
       style="color-interpolation-filters:sRGB">
      <feGaussianBlur
         id="feGaussianBlur4346"
         stdDeviation="0.68785715" />
    </filter>
  </defs>
  <metadata
     id="metadata7">
    <rdf:RDF>
      <cc:Work
         rdf:about="">
        <dc:format>image/svg+xml</dc:format>
        <dc:type
           rdf:resource="http://purl.org/dc/dcmitype/StillImage" />
        <dc:title></dc:title>
      </cc:Work>
    </rdf:RDF>
  </metadata>
  <g
     transform="translate(-755.15009,-1296.8458)"
     id="layer1">
    <rect
       style="opacity:1;fill:#294887;fill-opacity:1;stroke:none;stroke-width:10;stroke-miterlimit:4;stroke-dasharray:none;stroke-opacity:1"
       id="rect4637"
       width="396.20572"
       height="396.20572"
       x="755.15009"
       y="1296.8458" />
    <g
       id="g4639"
       transform="matrix(0.9905144,0,0,0.9905144,780.54256,624.87674)">
      <path
         id="path4641"
         d="m 119.71581,760.18803 c -66.48,0 -120,45.55656 -120,102.14649 0,38.7235 25.0646,72.2777 62.18945,89.6074 l -9.54101,42.1797 90.39844,-29.6387 86.25,0 c 66.48,0 120,-45.5585 120,-102.1484 0,-56.58993 -53.52,-102.14649 -120,-102.14649 l -109.29688,0 z"
         style="opacity:1;fill:#98e7da;fill-opacity:1;fill-rule:evenodd;stroke:#ffffff;stroke-width:10;stroke-linecap:butt;stroke-linejoin:miter;stroke-miterlimit:4;stroke-dasharray:none;stroke-opacity:1" />
      <g
         transform="translate(67.9357,-133.70519)"
         id="g4643">
        <rect
           style="opacity:1;fill:#baefe6;fill-opacity:1;stroke:none;stroke-width:10;stroke-miterlimit:4;stroke-dasharray:none;stroke-opacity:1;filter:url(#filter4344)"
           id="rect4645"
           width="201.42857"
           height="27.857143"
           x="225"
           y="783.07648"
           rx="29.956888"
           ry="12.03487"
           transform="matrix(1.0014391,0,0,0.83091878,-219.75447,307.25859)" />
        <rect
           transform="matrix(0.75894356,0,0,0.84431449,-165.5933,341.58214)"
           ry="12.03487"
           rx="39.528629"
           y="783.07648"
           x="225"
           height="27.857143"
           width="201.42857"
           id="rect4647"
           style="opacity:1;fill:#baefe6;fill-opacity:1;stroke:none;stroke-width:10;stroke-miterlimit:4;stroke-dasharray:none;stroke-opacity:1;filter:url(#filter4344)" />
      </g>
    </g>
  </g>
</svg>
